Coordinates
version=1
nRows=29
nColumns=24
inDegrees=yes

Units are S.I. units (second, meters, Newtons, ...)
Angles are in degrees.

endheader
time	pelvis_tilt	pelvis_list	pelvis_rotation	pelvis_tx	pelvis_ty	pelvis_tz	hip_flexion_r	hip_adduction_r	hip_rotation_r	knee_angle_r	ankle_angle_r	subtalar_angle_r	mtp_angle_r	hip_flexion_l	hip_adduction_l	hip_rotation_l	knee_angle_l	ankle_angle_l	subtalar_angle_l	mtp_angle_l	lumbar_extension	lumbar_bending	lumbar_rotation
      0.72883333	     -1.80560327	     -0.60308588	      0.45517135	     -0.41001141	      1.00665256	      0.30484670	     12.02165313	      3.77957052	      1.07941955	    -21.74404928	     11.89923194	     -7.54700059	      4.49069372	     16.89418556	     -1.10322110	     -3.38727633	    -67.88070954	     -8.45054531	     -6.18087314	      7.04266890	    -11.23999112	      7.89355283	      0.79848416
      0.73300000	     -1.76533547	     -0.52722618	      0.57016869	     -0.40483309	      1.00752237	      0.30485308	     11.45635239	      3.70918777	      1.09089372	    -21.34811523	     11.90494950	     -7.71485299	      4.38951374	     17.35777441	     -0.99746627	     -3.28030702	    -67.63501394	     -7.64215235	     -6.54856203	      6.82132850	    -11.31455783	      7.72527895	      1.00428407
      0.73716667	     -1.75018373	     -0.44771376	      0.68630497	     -0.39967903	      1.00834597	      0.30483500	     10.93083245	      3.63004842	      1.07746237	    -20.97625653	     11.92428888	     -7.80157380	      4.33792935	     17.83937538	     -0.88070373	     -3.17025144	    -67.32897645	     -6.85533412	     -6.93422562	      6.72126976	    -11.37391461	      7.56764572	      1.10716843
      0.74133333	     -1.70752214	     -0.35731067	      0.78997057	     -0.39448437	      1.00921013	      0.30485066	     10.35260712	      3.54846088	      1.09841934	    -20.55744985	     11.91287256	     -7.96624006	      4.25769513	     18.26629437	     -0.76534180	     -3.09243156	    -66.94347994	     -6.10789560	     -7.26709410	      6.56379175	    -11.45160210	      7.38122541	      1.32011132
      0.74550000	     -1.71270937	     -0.25769879	      0.88051967	     -0.38927659	      1.00998603	      0.30484653	      9.84850397	      3.44888469	      1.08035293	    -20.18981199	     11.94004860	     -8.03279106	      4.22946467	     18.72780254	     -0.64050711	     -3.03948909	    -66.49519077	     -5.37226926	     -7.63627917	      6.51782159	    -11.43777960	      7.21901227	      1.39921333
      0.74966667	     -1.64438036	     -0.17656176	      0.97343589	     -0.38407747	      1.01087585	      0.30489502	      9.22003964	      3.38796511	      1.14394447	    -19.71646920	     11.87095774	     -8.26395875	      4.14046346	     19.09239546	     -0.54059367	     -2.97379545	    -65.97598509	     -4.68768368	     -7.91888916	      6.34798405	    -11.55846271	      7.02203286	      1.67059566
      0.75383333	     -1.61546648	     -0.09251495	      1.03151554	     -0.37888892	      1.01168727	      0.30495921	      8.65284905	      3.32515314	      1.22969291	    -19.28059283	     11.80695600	     -8.45446605	      3.97967221	     19.48167634	     -0.44592451	     -2.95126812	    -65.40032441	     -3.98666912	     -8.23169438	      6.01265796	    -11.62959675	      6.85644190	      1.89683721
      0.75800000	     -1.58805490	      0.03502599	      1.12674253	     -0.37368740	      1.01248970	      0.30494254	      8.09499089	      3.19901412	      1.21844019	    -18.86851262	     11.77962419	     -8.56964675	      3.89547402	     19.85202670	     -0.27919461	     -2.88533759	    -64.74220503	     -3.35398274	     -8.49605620	      5.84503801	    -11.67609114	      6.62724318	      2.01759709
      0.76216667	     -1.55050951	      0.15251953	      1.19693589	     -0.36848043	      1.01330804	      0.30494981	      7.51837423	      3.08964328	      1.24947738	    -18.43601944	     11.72347840	     -8.70223323	      3.81526085	     20.18854572	     -0.13215547	     -2.84529444	    -64.01766322	     -2.73804814	     -8.75991467	      5.68348773	    -11.74560871	      6.41946851	      2.18365745
      0.76633333	     -1.52424055	      0.26729533	      1.25984346	     -0.36327959	      1.01406377	      0.30495720	      6.95745695	      2.98337252	      1.28473251	    -18.00988493	     11.66234425	     -8.83534235	      3.73434107	     20.52150642	      0.01060183	     -2.81073502	    -63.23994429	     -2.13501041	     -8.99073905	      5.51633671	    -11.80156476	      6.21279662	      2.35422883
      0.77050000	     -1.58246394	      0.37847760	      1.31842097	     -0.35810279	      1.01463577	      0.30493875	      6.51511098	      2.87206009	      1.28116128	    -17.63995900	     11.63592478	     -8.86938183	      3.70746252	     20.93966866	      0.15546197	     -2.77604111	    -62.42831408	     -1.52610390	     -9.23031162	      5.46756688	    -11.75231343	      6.02142973	      2.42309095
      0.77466667	     -1.51240325	      0.46972058	      1.35716593	     -0.35289417	      1.01543253	      0.30496823	      5.88087783	      2.80024130	      1.38197797	    -17.14891110	     11.48735954	     -9.09939786	      3.56781725	     21.18148207	      0.26866464	     -2.74603987	    -61.52546802	     -0.95780852	     -9.40434407	      5.14415040	    -11.87954446	      5.84771748	      2.72942871
      0.77883333	     -1.52746241	      0.61743769	      1.41913594	     -0.34769417	      1.01606639	      0.30489784	      5.38307861	      2.64338836	      1.35332535	    -16.76291745	     11.42068028	     -9.15514889	      3.52165542	     21.49626287	      0.47037140	     -2.68551866	    -60.55364580	     -0.44266639	     -9.54334393	      5.04287766	    -11.87028231	      5.62740211	      2.80885392
      0.78300000	     -1.47317616	      0.72894239	      1.46962509	     -0.34245993	      1.01678410	      0.30487521	      4.77074273	      2.53695404	      1.38061827	    -16.28946104	     11.34326329	     -9.25976098	      3.44996796	     21.71425256	      0.61595757	     -2.64258258	    -59.52777370	      0.03088223	     -9.68681341	      4.86707730	    -11.96470706	      5.41383285	      2.98962427
      0.78716667	     -1.46253279	      0.81970247	      1.49384587	     -0.33725677	      1.01737938	      0.30485296	      4.22375791	      2.45174177	      1.43075076	    -15.84505741	     11.20695317	     -9.38123167	      3.30819987	     21.96691324	      0.73837800	     -2.60938671	    -58.46748524	      0.55178551	     -9.81738561	      4.48330494	    -12.00771500	      5.24802619	      3.21064799
      0.79133333	     -1.47377585	      0.93941441	      1.55082720	     -0.33204599	      1.01792361	      0.30476886	      3.70396623	      2.32580490	      1.41687149	    -15.41791194	     11.13784526	     -9.43260877	      3.23856892	     22.22125719	      0.91449173	     -2.52587920	    -57.33499925	      0.96442513	     -9.88130207	      4.29315330	    -12.01973476	      5.04482361	      3.31205033
      0.79550000	     -1.49646573	      1.04586828	      1.59188087	     -0.32684759	      1.01841039	      0.30466380	      3.21215535	      2.20931536	      1.39028559	    -15.01674666	     11.00723652	     -9.44990387	      3.19875114	     22.46829416	      1.08042934	     -2.43913329	    -56.15399580	      1.40078569	     -9.94434421	      4.18960648	    -12.01050494	      4.87897601	      3.41416948
      0.79966667	     -1.48669781	      1.14774385	      1.62980665	     -0.32162097	      1.01893373	      0.30456578	      2.66407301	      2.10029104	      1.37997958	    -14.57127378	     10.88312450	     -9.49081867	      3.15880461	     22.65310410	      1.23801583	     -2.35165077	    -54.90752778	      1.77875285	     -9.99957719	      4.07895023	    -12.04674327	      4.70488369	      3.54630184
      0.80383333	     -1.42733145	      1.21210305	      1.66989713	     -0.31638307	      1.01947602	      0.30448360	      2.03273817	      2.03912405	      1.40897123	    -14.05952243	     10.77099611	     -9.58527283	      3.09787233	     22.77223846	      1.34891283	     -2.25797416	    -53.62660867	      2.11105035	    -10.04081952	      3.88679333	    -12.15179613	      4.56468435	      3.73022305
      0.80800000	     -1.46148248	      1.30437086	      1.70270245	     -0.31116595	      1.01985114	      0.30435339	      1.54973764	      1.93379706	      1.37725353	    -13.64781402	     10.61633685	     -9.58969191	      3.06260099	     22.96621260	      1.50657350	     -2.14241200	    -52.28121007	      2.43787233	    -10.04633833	      3.77841642	    -12.12441481	      4.41315143	      3.83161834
      0.81216667	     -1.41674952	      1.36695123	      1.73997358	     -0.30592471	      1.02030140	      0.30423351	      0.93883422	      1.86877230	      1.38810259	    -13.14416687	     10.49438220	     -9.65787610	      3.00855947	     23.05641455	      1.62669900	     -2.02173833	    -50.88943312	      2.69290835	    -10.07952891	      3.58671418	    -12.21352156	      4.28330980	      3.99638671
      0.81633333	     -1.41421850	      1.44228589	      1.77362332	     -0.30069386	      1.02064837	      0.30408070	      0.39627219	      1.78254744	      1.36872960	    -12.68884358	     10.35134153	     -9.68151214	      2.95810636	     23.16892084	      1.76872484	     -1.88518213	    -49.44269872	      2.92697109	    -10.08172793	      3.39815481	    -12.24101323	      4.15062195	      4.12611345
      0.82050000	     -1.40972802	      1.51207309	      1.80653475	     -0.29544804	      1.02096993	      0.30392400	     -0.14894374	      1.70088664	      1.33722695	    -12.23228388	     10.20742447	     -9.68561909	      2.91496776	     23.25508569	      1.90751641	     -1.73388166	    -47.94077417	      3.11374958	    -10.08661114	      3.23006442	    -12.26943348	      4.02266348	      4.24582366
      0.82466667	     -1.40323875	      1.56419076	      1.83804823	     -0.29020658	      1.02124623	      0.30375207	     -0.69887150	      1.63780385	      1.31640721	    -11.76705684	     10.04791326	     -9.68948224	      2.87146685	     23.32056815	      2.03108617	     -1.56219441	    -46.39661744	      3.27364975	    -10.08524166	      3.05055541	    -12.30543851	      3.91861230	      4.36828229
      0.82883333	     -1.40306703	      1.60261244	      1.87177607	     -0.28495179	      1.02146744	      0.30357119	     -1.24162121	      1.58871422	      1.28820570	    -11.30367843	      9.88169205	     -9.69587008	      2.83145090	     23.37292812	      2.14112855	     -1.37518033	    -44.80994239	      3.39542349	    -10.07572292	      2.87734813	    -12.32494704	      3.82380058	      4.48541180
      0.83300000	     -1.41354991	      1.64175172	      1.89879608	     -0.27969576	      1.02163783	      0.30338531	     -1.76798860	      1.53689413	      1.25773960	    -10.84829944	      9.71119612	     -9.68892536	      2.79183617	     23.41154534	      2.25222605	     -1.18056953	    -43.16907114	      3.47918411	    -10.07559259	      2.69301423	    -12.33183708	      3.73655585	      4.59831131
      0.83716667	     -1.41050076	      1.68162095	      1.93039151	     -0.27442357	      1.02178345	      0.30318245	     -2.31126872	      1.48322910	      1.20939159	    -10.39069214	      9.54850293	     -9.66816593	      2.75865893	     23.41214577	      2.36680116	     -0.96764283	    -41.48229129	      3.52308085	    -10.06602635	      2.53032242	    -12.36359632	      3.65470833	      4.70834996
      0.84133333	     -1.41716247	      1.70170878	      1.96214054	     -0.26914476	      1.02187020	      0.30296856	     -2.84125366	      1.45033183	      1.16428659	     -9.93770292	      9.37737080	     -9.64855305	      2.73076403	     23.40225269	      2.46221610	     -0.73245902	    -39.75506095	      3.53534289	    -10.05257435	      2.38559465	    -12.37553347	      3.58657414	      4.81167309
      0.84550000	     -1.42161527	      1.72555149	      1.98861722	     -0.26385499	      1.02191270	      0.30274283	     -3.36861854	      1.41139926	      1.11151861	     -9.49664158	      9.20443863	     -9.61424624	      2.70790902	     23.36470143	      2.56007604	     -0.49022960	    -37.98257864	      3.51503920	    -10.04116591	      2.25605270	    -12.39756864	      3.52170669	      4.91479453
